<svg data-v-0dd9719b="" version="1.0" xmlns="http://www.w3.org/2000/svg" xmlns:xlink="http://www.w3.org/1999/xlink" width="100%" height="100%" viewBox="0 0 84 84" preserveAspectRatio="xMidYMid meet" color-interpolation-filters="sRGB" style="margin: auto;">
                            <rect data-v-0dd9719b="" x="0" y="0" width="100%" height="100%" fill="#ffffff" fill-opacity="0" class="background"></rect> <!---->
                            <g data-v-0dd9719b="" fill="#333" class="icon-text-wrapper icon-svg-group iconsvg" transform="translate(12, 12.782445907592773)">
                                <g class="iconsvg-imagesvg" transform="translate(0,0)">
                                    <g>
                                        <rect fill="#333" fill-opacity="0" stroke-width="2" x="0" y="0" width="60" height="58.435107812773914" class="image-rect"></rect>
                                        <svg x="0" y="0" width="60" height="58.435107812773914" filtersec="colorsb3477820989" class="image-svg-svg primary" style="overflow: visible;">
                                            <svg xmlns="http://www.w3.org/2000/svg" viewBox="0.0018897950649261475 0 81.98810577392578 79.85000610351562">
                                                <path d="M39.67 79.85c-3.3-3.33-6.48-6.57-9.68-9.77Q15.2 55.28.37 40.51c-.45-.45-.53-.66 0-1.15 2.78-2.75 5.55-5.53 8.32-8.36.35-.36.55-.43 1 0q14.82 14.86 29.67 29.7a1.07 1.07 0 0 1 .44.81v17.93a2.64 2.64 0 0 1-.13.41z" fill="#b6622c"></path>
                                                <path d="M42.2 79.77v-.86V62.1a1.51 1.51 0 0 1 .48-1.1q14.9-14.83 29.77-29.71c.4-.4.59-.44 1 0 2.87 2.92 5.77 5.8 8.54 8.57-13.22 13.23-26.44 26.5-39.79 39.91z" fill="#4c3731"></path>
                                                <path d="M39.7 45.82c-.26 0-.36-.24-.5-.38q-11-11-22-21.95c-.33-.34-.44-.51 0-.91Q28.28 11.51 39.33.4l.37-.34z" fill="#b6622c"></path>
                                                <path d="M42.2 46.27v-.84-17a1.36 1.36 0 0 1 .43-1.1q6.51-6.45 13-12.94c.42-.42.61-.38 1 0 2.76 2.8 5.54 5.57 8.33 8.34.28.28.41.44 0 .81Q53.78 34.71 42.6 45.9zM42.25 0L44 1.77 48.18 6c.16.16.42.27.1.58l-6 6z" fill="#4c3731"></path>
                                            </svg>
                                        </svg> <!----></g>
                                </g>
                                <g transform="translate(30,65.43510818481445)">
                                    <g data-gra="path-name" fill-rule="" class="tp-name iconsvg-namesvg">
                                        <g transform="scale(1)">
                                            <g>
                                                <path d="" transform="translate(0, 0)"></path>
                                            </g> <!----> <!----> <!----> <!----> <!----> <!----> <!----></g>
                                    </g> <!----></g>
                            </g>
                            <defs v-gra="od"></defs>
                        </svg>