<?xml version="1.0" standalone="no"?><!DOCTYPE svg PUBLIC "-//W3C//DTD SVG 1.1//EN"
        "http://www.w3.org/Graphics/SVG/1.1/DTD/svg11.dtd">
<svg t="1749111623527" class="icon" viewBox="0 0 1024 1024" version="1.1" xmlns="http://www.w3.org/2000/svg" p-id="2331"
     xmlns:xlink="http://www.w3.org/1999/xlink" width="200" height="200" fill="white">
    <path d="M786.368 199.456a33.28 33.28 0 1 1 0 66.56H227.84a33.28 33.28 0 1 1 0-66.56h558.528zM451.264 478.72a33.28 33.28 0 1 1 0 66.56H227.84a33.28 33.28 0 0 1 0-66.56h223.424z m0 279.264a33.28 33.28 0 1 1 0 66.56H227.84a33.28 33.28 0 0 1 0-66.56h223.424zM814.304 512v279.264a27.936 27.936 0 0 1-44.416 22.56l-191.04-139.648a27.936 27.936 0 0 1 0-45.12l191.04-139.616a27.936 27.936 0 0 1 44.416 22.56z"
          p-id="2332"></path>
</svg>
