<?xml version="1.0" standalone="no"?><!DOCTYPE svg PUBLIC "-//W3C//DTD SVG 1.1//EN"
        "http://www.w3.org/Graphics/SVG/1.1/DTD/svg11.dtd">
<svg t="1749111619914" class="icon" viewBox="0 0 1024 1024" version="1.1" xmlns="http://www.w3.org/2000/svg" p-id="2189"
     xmlns:xlink="http://www.w3.org/1999/xlink" width="200" height="200" fill="white">
    <path d="M237.632 199.456a33.28 33.28 0 1 0 0 66.56H796.16a33.28 33.28 0 1 0 0-66.56H237.632z m335.104 279.264a33.28 33.28 0 1 0 0 66.56h223.424a33.28 33.28 0 0 0 0-66.56h-223.424z m0 279.264a33.28 33.28 0 1 0 0 66.56h223.424a33.28 33.28 0 0 0 0-66.56h-223.424zM209.696 512v279.264a27.936 27.936 0 0 0 44.416 22.56l191.04-139.648a27.936 27.936 0 0 0 0-45.12l-191.04-139.616A27.936 27.936 0 0 0 209.696 512z"
          p-id="2190"></path>
</svg>
